<mxfile host="app.diagrams.net" modified="2023-10-08T02:12:02.575Z" agent="Mozilla/5.0 (Macintosh; Intel Mac OS X 10_15_7) AppleWebKit/537.36 (KHTML, like Gecko) Chrome/117.0.0.0 Safari/537.36" version="21.7.4" etag="VNoRZQ-Rb_iSWpZIO-Ox" type="github">
  <diagram name="第 1 页" id="NGar3WXCgvpCVkm60f6h">
    <mxGraphModel>
      <root>
        <mxCell id="0" />
        <mxCell id="1" parent="0" />
      </root>
    </mxGraphModel>
  </diagram>
</mxfile>
